<svg width="55" height="41" viewBox="0 0 55 41" fill="none" xmlns="http://www.w3.org/2000/svg">
<path d="M52.1247 10.0186C50.375 6.94243 47.9762 4.5154 44.9001 2.70924C41.8239 0.903081 38.381 0 34.5993 0H20.15C16.3401 0 12.8971 0.903081 9.84923 2.70924C6.77311 4.5154 4.37429 6.94243 2.62458 10.0186C0.874856 13.0947 0 16.4812 0 20.15C0 23.8188 0.874856 27.2053 2.62458 30.2814C4.37429 33.3576 6.77311 35.7846 9.84923 37.5907C12.9254 39.3969 16.3683 40.3 20.15 40.3H34.5993C38.4092 40.3 41.8522 39.3969 44.9001 37.5907C47.9762 35.7846 50.375 33.3576 52.1247 30.2814C53.8744 27.2053 54.7493 23.8188 54.7493 20.15C54.7493 16.4812 53.8744 13.0665 52.1247 10.0186ZM46.7344 27.2053C45.4927 29.3501 43.8277 31.0152 41.6828 32.2851C39.538 33.5269 37.1674 34.1477 34.5711 34.1477C31.9465 34.1477 29.5759 33.5269 27.4593 32.2851C25.3145 31.0434 23.6494 29.3501 22.4077 27.2053C21.166 25.0605 20.5733 22.7181 20.5733 20.15C20.5733 17.5819 21.1942 15.2113 22.4077 13.0947C23.6494 10.9499 25.3145 9.2848 27.4593 8.01484C29.6041 6.77311 31.9747 6.15224 34.5711 6.15224C37.1956 6.15224 39.5662 6.77311 41.6828 8.01484C43.8277 9.25658 45.4927 10.9499 46.7344 13.0947C47.9762 15.2395 48.5688 17.5819 48.5688 20.15C48.5971 22.7181 47.9762 25.0605 46.7344 27.2053Z" fill="white"/>
</svg>
